<?xml version="1.0" encoding="UTF-8"?>
<svg width="512px" height="512px" viewBox="0 0 512 512" version="1.1" xmlns="http://www.w3.org/2000/svg" xmlns:xlink="http://www.w3.org/1999/xlink">
    <title>Group</title>
    <g id="Page-1" stroke="none" stroke-width="1" fill="none" fill-rule="evenodd">
        <g id="Group">
            <rect id="Rectangle" fill-opacity="0" fill="#FFFFFF" x="0" y="0" width="512" height="512" rx="50"></rect>
            <path d="M256.461523,89.0089109 L135.421698,461.60297 L135.421698,461.048515 C133.210925,466.593069 130.171112,471.121122 126.30226,474.632673 C122.433407,478.144224 117.735514,479.9 112.208581,479.9 C109.260884,479.9 106.405302,479.622772 103.641836,479.068317 C100.87837,478.513861 98.0227877,477.866997 95.0750903,477.127723 L95.6277835,477.127723 C74.6254395,470.474257 66.8877338,458.645875 72.4146664,441.642574 L198.428731,57.4049505 C200.271041,51.4907591 203.495085,46.5006601 208.100863,42.4346535 C212.70664,38.3686469 218.141457,35.9660066 224.405314,35.2267327 C230.669171,34.1178218 236.748797,33.2861386 242.644192,32.7316832 C248.539586,32.1772277 253.145364,31.9 256.461523,31.9 C259.777683,31.9 264.38346,32.1772277 270.278855,32.7316832 C276.17425,33.2861386 282.253875,33.9330033 288.517732,34.6722772 C293.676203,35.4115512 298.742558,38.1838284 303.716797,42.9891089 C308.691037,47.7943894 312.467774,52.59967 315.047009,57.4049505 C335.680891,120.982508 356.591119,185.022112 377.777695,249.523762 C398.96427,314.025413 419.874498,378.065017 440.50838,441.642574 C445.66685,458.645875 437.929145,470.474257 417.295263,477.127723 C414.347565,477.866997 411.676215,478.513861 409.281211,479.068317 C406.886206,479.622772 404.214856,479.9 401.267158,479.9 C396.108688,479.9 391.410795,478.144224 387.17348,474.632673 C382.936165,471.121122 379.896352,466.593069 378.054041,461.048515 L378.054041,461.60297 L256.461523,89.0089109 Z M297.913518,341.840594 C297.913518,353.668977 293.768318,363.741584 285.47792,372.058416 C277.187521,380.375248 267.146926,384.533663 255.356137,384.533663 C243.565347,384.533663 233.616868,380.375248 225.5107,372.058416 C217.404533,363.741584 213.351449,353.668977 213.351449,341.840594 C213.351449,330.012211 217.404533,319.939604 225.5107,311.622772 C233.616868,303.305941 243.565347,299.147525 255.356137,299.147525 C267.146926,299.147525 277.187521,303.305941 285.47792,311.622772 C293.768318,319.939604 297.913518,330.012211 297.913518,341.840594 Z" id="Shape-Copy" fill="#FF2056" fill-rule="nonzero"></path>
        </g>
    </g>
</svg>