<svg width="322" height="244" viewBox="0 0 322 244" fill="none" xmlns="http://www.w3.org/2000/svg">
  <g transform="translate(-152, -390)" fill="#e11d48">
    <path d="M328.138,390.396 C330.168,390.323 330.128,390.243 331.983,390.944 C333.763,392.532 334.226,395.225 334.548,397.594 C336.894,414.881 338.576,432.491 340.57,449.814 L352.877,557.486 C354.965,575.778 356.842,597.172 359.647,615.124 C360.847,609.899 361.801,601.025 362.557,595.444 L367.267,560.352 C368.208,553.185 368.496,545.969 370.694,539.252 C374.799,526.704 386.317,522.017 394.618,533.947 C397.439,537.999 399.453,546.97 403.666,548.538 C411.686,545.998 421.596,481.741 448.406,532.991 C454.481,544.603 463.888,563.74 473.476,572.08 C467.823,572.064 453.743,573.492 450.1,569.227 C439.334,556.62 430.894,541.696 421.09,528.194 C419.489,531.485 417.5,535.504 416.11,539.299 C414.169,545.621 409.262,556.811 400.681,553.81 C393.304,551.132 392.465,535.024 385.466,533.144 C374.699,530.253 373.827,555.267 372.999,561.469 C371.093,576.3 369.103,591.12 367.03,605.928 C366.296,611.104 364.711,630.559 360.293,633.191 C353.028,632.925 354.571,619.194 353.279,613.685 C352.581,610.706 352.338,605.343 351.976,602.108 L346.935,557.322 L330.074,409.596 C326.817,431.557 323.714,453.54 320.765,475.544 C319.082,488.044 317.547,501.614 315.371,513.965 C314.544,518.838 313.611,522.004 312.071,526.679 C313.681,531.748 316.8,538.938 318.815,544.024 C322.491,553.338 326.099,562.679 329.639,572.046 L304.453,572.008 L295.591,549.372 L242.462,549.344 L233.912,571.906 C225.624,572.08 216.877,571.951 208.552,571.964 C213.572,559.874 218.147,546.904 223.48,535.069 C234.061,535.124 246,535.711 256.512,534.279 C260.709,533.708 263.729,531.581 266.97,528.996 C273.744,528.77 280.261,528.861 287.037,528.944 C285.182,524.193 281.123,510.584 276.409,509.363 C271.902,510.559 268.355,522.231 263.938,525.831 C257.851,531.332 248.869,530.817 241.173,530.92 C213.741,531.29 186.288,531.549 158.854,531.355 C155.752,531.333 154.647,531.279 152.547,529.03 C152.07,523.783 174.635,525.543 178.765,525.543 C194.689,525.602 210.613,525.551 226.536,525.391 C234.898,506.266 243.036,480.505 252.501,461.83 C256.825,453.297 282.631,451.796 287.577,465.308 C292.835,479.669 300.297,496.746 305.375,511.375 C308.027,519.107 297.87,532.684 292.524,516.467 C289.343,507.832 285.586,500.454 275.876,498.608 C274.833,495.422 270.806,481.77 268.949,480.403 C266.553,482.452 257.39,510.52 255.212,515.3 C254.194,517.533 251.98,521.879 252.654,524.206 C262.816,526.593 265.583,504.671 274.219,503.36 C289.47,501.045 286.401,530.358 301.257,528.436 C309.099,527.421 309.901,509.22 311.061,503.438 C312.564,493.581 313.793,483.571 315.117,473.7 L323.059,416.32 C323.949,409.895 325.308,395.258 328.138,390.396 Z"/>
    <path d="M372.192,455.94 C402.244,455.701 397.21,453.89 413.775,478.942 L434.419,510.033 C424.395,508.243 420.73,511.19 414.803,518.629 L405.785,505.263 C402.591,500.52 399.609,496.048 396.139,491.494 C396.408,503.885 396.317,516.655 396.445,529.104 C387.897,520.989 381.188,520.452 372.237,528.295 C372.469,504.177 372.454,480.058 372.192,455.94 Z"/>
  </g>
</svg>
